<svg width="45" height="45" viewBox="0 0 45 45" fill="none" xmlns="http://www.w3.org/2000/svg">
<g clip-path="url(#clip0_33_31)">
<path d="M35.0832 34.0311C38.7101 32.8027 41.371 28.8994 41.371 24.2777C41.371 18.6743 37.4641 14.1164 32.6613 14.1164C30.8294 14.1164 29.0475 14.7947 27.5725 16.0337C26.1421 14.8326 24.3928 14.1164 22.5 14.1164C20.6072 14.1164 18.8579 14.8326 17.4275 16.0337C15.9525 14.7947 14.1706 14.1164 12.3387 14.1164C7.53591 14.1164 3.62903 18.6743 3.62903 24.2777C3.62903 28.8994 6.28985 32.8027 9.91675 34.0311L8.78658 36.2918C8.67423 36.5168 8.68628 36.784 8.81847 36.9981C8.95066 37.2114 9.1835 37.3422 9.43548 37.3422H11.6129V38.068C11.6129 38.3377 11.5034 38.6028 11.3124 38.7938L10.8871 39.2191C10.4189 39.6873 10.1613 40.3092 10.1613 40.9712C10.1613 41.6329 10.4189 42.2559 10.8871 42.723C11.3553 43.1912 11.6129 43.8135 11.6129 44.4759V44.6003H13.0645V44.4759C13.0645 43.4265 12.6559 42.4395 11.9134 41.697C11.7224 41.506 11.6129 41.2409 11.6129 40.9712C11.6129 40.7012 11.7224 40.4361 11.9134 40.2454L12.3387 39.8198C12.8069 39.3516 13.0645 38.7297 13.0645 38.068V37.3422H15.2419C15.4939 37.3422 15.7267 37.2114 15.8596 36.9981C15.9918 36.784 16.0039 36.5168 15.8915 36.2918L14.7614 34.0318C15.7151 33.71 16.6181 33.2021 17.4282 32.5213C18.2228 33.189 19.1148 33.705 20.078 34.0311L18.9479 36.2918C18.8355 36.5168 18.8476 36.784 18.9798 36.9981C19.112 37.2114 19.3448 37.3422 19.5968 37.3422H21.7742V38.068C21.7742 38.3377 21.6647 38.6028 21.4737 38.7938L21.0484 39.2191C20.5802 39.6873 20.3226 40.3092 20.3226 40.9712C20.3226 41.6329 20.5802 42.2559 21.0484 42.723C21.5165 43.1912 21.7742 43.8135 21.7742 44.4759V44.6003H23.2258V44.4759C23.2258 43.4265 22.8172 42.4395 22.0747 41.697C21.8837 41.506 21.7742 41.2409 21.7742 40.9712C21.7742 40.7012 21.8837 40.4361 22.0747 40.2454L22.5 39.8198C22.9682 39.3516 23.2258 38.7297 23.2258 38.068V37.3422H25.4032C25.6552 37.3422 25.888 37.2114 26.0209 36.9981C26.1531 36.784 26.1652 36.5168 26.0528 36.2918L24.9227 34.0311C25.8859 33.705 26.7786 33.189 27.5736 32.5213C28.3834 33.2014 29.2864 33.71 30.24 34.0318L29.1099 36.2918C28.9975 36.5168 29.0099 36.784 29.1418 36.9981C29.2732 37.2114 29.5061 37.3422 29.7581 37.3422H31.9355V38.068C31.9355 38.3377 31.826 38.6028 31.635 38.7938L31.2097 39.2191C30.7415 39.6873 30.4839 40.3092 30.4839 40.9712C30.4839 41.6329 30.7415 42.2559 31.2097 42.723C31.6778 43.1912 31.9355 43.8135 31.9355 44.4759V44.6003H33.3871V44.4759C33.3871 43.4265 32.9785 42.4395 32.236 41.697C32.045 41.506 31.9355 41.2409 31.9355 40.9712C31.9355 40.7012 32.045 40.4361 32.236 40.2454L32.6613 39.8198C33.1294 39.3516 33.3871 38.7297 33.3871 38.068V37.3422H35.5645C35.8165 37.3422 36.0493 37.2114 36.1822 36.9981C36.3144 36.784 36.3265 36.5168 36.2141 36.2918L35.0832 34.0311ZM39.9194 24.2777C39.9194 29.0801 36.6635 32.9874 32.6613 32.9874C31.2192 32.9874 29.8059 32.4639 28.6148 31.5028C30.2145 29.6592 31.2097 27.1022 31.2097 24.2777C31.2097 21.4535 30.2152 18.8965 28.6148 17.0529C29.8059 16.0918 31.2185 15.568 32.6613 15.568C36.6635 15.568 39.9194 19.4749 39.9194 24.2777ZM29.7581 24.2777C29.7581 29.0801 26.5022 32.9874 22.5 32.9874C18.4978 32.9874 15.2419 29.0801 15.2419 24.2777C15.2419 19.4749 18.4978 15.568 22.5 15.568C26.5022 15.568 29.7581 19.4749 29.7581 24.2777ZM5.08064 24.2777C5.08064 19.4749 8.33649 15.568 12.3387 15.568C13.7815 15.568 15.1941 16.0918 16.3852 17.0529C14.7848 18.8965 13.7903 21.4535 13.7903 24.2777C13.7903 27.1015 14.7848 29.6585 16.3852 31.5021C15.1941 32.4632 13.7815 32.9874 12.3387 32.9874C8.33649 32.9874 5.08064 29.0801 5.08064 24.2777ZM14.0675 35.8906H10.61L11.3691 34.372C11.6877 34.4135 12.0105 34.439 12.3387 34.439C12.664 34.439 12.9862 34.4099 13.3062 34.3685L14.0675 35.8906ZM24.2287 35.8906H20.7712L21.5304 34.372C21.849 34.4135 22.1718 34.439 22.5 34.439C22.8282 34.439 23.151 34.4135 23.4696 34.372L24.2287 35.8906ZM30.9325 35.8906L31.6938 34.3685C32.0138 34.4099 32.336 34.439 32.6613 34.439C32.9895 34.439 33.3123 34.4135 33.6309 34.372L34.39 35.8906H30.9325Z" fill="white"/>
<path d="M28.3065 24.2776H26.8548C26.8548 27.4789 24.9018 30.0841 22.5 30.0841V31.5357C25.7016 31.5357 28.3065 28.2795 28.3065 24.2776Z" fill="white"/>
<path d="M5.82377 9.19309C5.88118 9.45144 6.07503 9.65841 6.32914 9.73248C6.39576 9.75197 6.46487 9.76154 6.53221 9.76154C6.72181 9.76154 6.90751 9.68676 7.04537 9.54855L11.295 5.29897C11.4495 5.34327 11.6047 5.38048 11.7603 5.42336L13.0818 11.3712C13.1414 11.6398 13.3476 11.8518 13.6138 11.9177C13.6726 11.9315 13.7314 11.939 13.7903 11.939C13.9994 11.939 14.2017 11.8482 14.341 11.6856L18.6374 6.67367C18.7837 6.6875 18.9305 6.70557 19.0779 6.71727L21.851 12.2632C21.9737 12.5092 22.2249 12.6648 22.4999 12.6648C22.775 12.6648 23.0262 12.5092 23.1496 12.2632L25.9227 6.71727C26.0702 6.70486 26.2162 6.6875 26.3636 6.67367L30.6596 11.6856C30.7982 11.8482 31.0005 11.939 31.2096 11.939C31.2685 11.939 31.3273 11.9315 31.3861 11.917C31.6523 11.8504 31.8585 11.6391 31.9181 11.3705L33.2396 5.42265C33.3941 5.38048 33.5504 5.34256 33.7049 5.29826L37.9545 9.54784C38.0924 9.68676 38.2781 9.76154 38.4677 9.76154C38.535 9.76154 38.6041 9.75197 38.6708 9.73248C38.9249 9.65841 39.1187 9.45144 39.1761 9.19309L40.5384 3.06236L44.5034 1.74046L44.0441 0.363624L34.8939 3.41357C26.9019 6.07793 18.098 6.07793 10.106 3.41357L0.955051 0.362915L0.49646 1.74046L4.46146 3.06236L5.82377 9.19309ZM14.1837 9.63857L13.3345 5.81887C14.5125 6.08963 15.7012 6.30652 16.8983 6.47131L14.1837 9.63857ZM30.8162 9.63857L28.1016 6.47202C29.298 6.30723 30.4874 6.09034 31.6654 5.81958L30.8162 9.63857ZM38.933 3.59715L38.046 7.58696L35.2735 4.81415C35.2994 4.80564 35.3263 4.7982 35.3532 4.7897L38.933 3.59715ZM24.2461 6.82323L22.4999 10.3158L20.7538 6.82323C21.335 6.84804 21.918 6.86257 22.4999 6.86257C23.0819 6.86257 23.6641 6.84804 24.2461 6.82323ZM9.72639 4.81486L6.95394 7.58767L6.06688 3.59715L9.64665 4.79041C9.67288 4.79891 9.69946 4.80635 9.72639 4.81486Z" fill="white"/>
<path d="M44.5035 38.1048C43.3552 37.7224 42.4423 36.8084 42.0599 35.6609C41.9603 35.3643 41.6839 35.1647 41.371 35.1647C41.058 35.1647 40.7816 35.3643 40.682 35.6609C40.2996 36.8091 39.386 37.7224 38.2385 38.1048C37.9415 38.2044 37.7419 38.4808 37.7419 38.7938C37.7419 39.1063 37.9415 39.3831 38.2385 39.4824C39.3867 39.8648 40.2996 40.7787 40.682 41.9263C40.7816 42.2229 41.058 42.4228 41.371 42.4228C41.6839 42.4228 41.9603 42.2229 42.0599 41.9263C42.4423 40.778 43.356 39.8648 44.5035 39.4824C44.8005 39.3831 45 39.1063 45 38.7938C45 38.4808 44.8005 38.2044 44.5035 38.1048ZM41.371 40.1029C41.0137 39.594 40.5704 39.1506 40.0615 38.7938C40.5704 38.4365 41.0137 37.9932 41.371 37.4843C41.7282 37.9932 42.1716 38.4365 42.6805 38.7938C42.1716 39.1506 41.7282 39.594 41.371 40.1029Z" fill="white"/>
<path d="M4.31798 15.7973C4.70038 14.649 5.61401 13.7357 6.76155 13.3533C7.05854 13.2541 7.25806 12.9773 7.25806 12.6647C7.25806 12.3518 7.05854 12.0754 6.76155 11.9758C5.61331 11.5934 4.70038 10.6794 4.31798 9.53186C4.2184 9.23523 3.94197 9.03571 3.62903 9.03571C3.3161 9.03571 3.03967 9.23523 2.94008 9.53186C2.55769 10.6801 1.64405 11.5934 0.496511 11.9758C0.199526 12.0754 0 12.3518 0 12.6647C0 12.9773 0.199526 13.2541 0.496511 13.3533C1.64476 13.7357 2.55769 14.6497 2.94008 15.7973C3.03967 16.0939 3.3161 16.2938 3.62903 16.2938C3.94197 16.2938 4.2184 16.0939 4.31798 15.7973ZM2.31953 12.6647C2.82845 12.3075 3.2718 11.8642 3.62903 11.3552C3.98627 11.8642 4.42962 12.3075 4.93853 12.6647C4.42962 13.0216 3.98627 13.465 3.62903 13.9739C3.2718 13.465 2.82845 13.0216 2.31953 12.6647Z" fill="white"/>
</g>
<defs>
<clipPath id="clip0_33_31">
<rect width="45" height="45" fill="white"/>
</clipPath>
</defs>
</svg>
