<svg width="148" height="187" viewBox="0 0 148 187" fill="none" xmlns="http://www.w3.org/2000/svg">
<g clip-path="url(#clip0_46_74)">
<path d="M63.4071 105.366C69.7331 126.315 71.278 148.45 70.2969 170.22C70.1673 172.873 73.7983 171.192 73.8828 169.259C74.8864 147.208 73.381 124.719 66.9704 103.494C66.2656 101.168 62.8658 103.556 63.4071 105.366ZM120.973 124.27C122.535 129.838 121.43 135.57 121.762 141.257C122.202 148.86 126.876 154.699 132.582 159.346C132.932 158.239 133.304 157.138 133.67 156.037C128.449 158.296 120.065 162.038 120.511 169.001C120.9 174.997 125.489 179.29 124.412 185.679C123.967 188.259 127.677 186.584 127.998 184.724C128.821 179.953 127.243 175.862 125.337 171.574C124.565 169.832 123.736 167.911 124.316 166.006C125.365 162.595 131.409 160.611 134.257 159.369C135.277 158.925 136.472 156.969 135.339 156.059C129.481 151.271 125.478 145.758 125.252 138.037C125.1 132.749 125.997 127.596 124.525 122.404C123.877 120.066 120.471 122.454 120.973 124.27ZM122.287 19.3142C99.3674 19.3142 80.767 42.8655 80.767 71.9239C80.767 100.971 111.738 126.635 122.287 126.635C132.853 126.635 163.812 100.977 163.812 71.9239C163.812 42.8655 145.223 19.3142 122.287 19.3142ZM133.23 35.2792L140.887 31.8401C164.336 56.4703 146.734 75.3743 146.734 75.3743C154.785 52.458 133.23 35.2792 133.23 35.2792ZM69.5527 104.427H63.9427C63.9427 104.427 62.9898 109.698 60.4978 111.3C58.0113 112.907 67.6075 107.563 71.5261 111.154C70.8438 110.558 68.4363 108.136 69.5527 104.427ZM71.5261 111.154C71.6388 111.255 71.7065 111.3 71.7065 111.3C71.6445 111.249 71.5768 111.21 71.5261 111.154ZM127.457 123.045H121.853C121.853 123.045 120.894 128.31 118.413 129.917C115.916 131.524 125.517 126.18 129.43 129.777C128.748 129.164 126.346 126.748 127.457 123.045ZM129.425 129.771C129.543 129.861 129.611 129.912 129.611 129.912C129.554 129.861 129.492 129.822 129.425 129.771ZM99.3787 22.5117C91.8686 8.9069 79.4308 0 65.3297 0C42.3992 0 23.8101 23.5513 23.8101 52.6041C23.8101 81.6569 54.775 107.316 65.3297 107.316C69.4456 107.316 76.6737 103.399 83.9583 96.9026C79.0587 88.8499 75.6588 79.6339 75.6588 70.0414C75.6588 49.0638 85.3565 30.9578 99.3787 22.5117ZM48.5843 27.086C48.2009 27.485 47.8231 27.8896 47.4454 28.3054C46.7011 29.1371 45.9738 30.0025 45.2746 30.8848C43.8651 32.6549 42.574 34.5149 41.3899 36.4481C39.0275 40.3143 37.1669 44.5008 36.1521 48.9177C35.1372 53.3234 35.0526 57.9763 36.1408 62.4944C37.2064 67.0125 39.456 71.317 42.4217 75.1102C38.9204 71.8059 35.9434 67.7936 34.0659 63.1631C32.1659 58.5439 31.4498 53.374 31.8332 48.294C32.1997 43.2027 33.5754 38.2126 35.5375 33.5203C36.5185 31.1657 37.6518 28.8786 38.9204 26.6589C39.5575 25.5462 40.2228 24.456 40.9276 23.3771C41.2884 22.832 41.6437 22.3038 42.0214 21.7643C42.4161 21.2192 42.7713 20.7191 43.2562 20.1178L49.695 25.9958C49.368 26.2824 48.9451 26.6982 48.5843 27.086Z" fill="#3559C3"/>
</g>
<defs>
<clipPath id="clip0_46_74">
<rect width="148" height="187" fill="white"/>
</clipPath>
</defs>
</svg>
