<svg width="162" height="162" viewBox="0 0 162 162" fill="none" xmlns="http://www.w3.org/2000/svg">
<g clip-path="url(#clip0_46_40)">
<path d="M119.222 113.4C8.09999 165.291 16.2 162 12.4031 162C5.56875 162 0 156.431 0 149.597C0 147.825 0.50625 146.053 1.26562 144.281L48.6 42.7782C50.3719 38.9813 54.9281 37.4626 58.725 39.2345C59.4844 39.4876 60.2438 39.9938 60.75 40.7532L121.5 101.503C124.537 104.541 124.284 109.35 121.247 112.134C120.741 112.641 119.981 113.147 119.222 113.4Z" fill="#414951"/>
<path d="M111.375 91.125V117.197L75.9375 133.65V55.6875L111.375 91.125Z" fill="#414951"/>
<path d="M55.4343 38.2219V143.016L19.9968 159.469V103.781L48.6 42.7782C49.8656 39.9938 52.65 38.2219 55.4343 38.2219Z" fill="#414951"/>
<path d="M122.766 41.7656C121.247 41.7656 120.234 40.7531 119.981 39.4875C119.981 37.9687 120.994 36.9562 122.259 36.7031L125.044 36.1969C131.119 35.1844 135.422 30.1219 135.422 24.0469C135.422 15.4406 141.497 8.09999 150.103 6.83436L152.887 6.32811C154.406 6.07498 155.672 7.08748 155.925 8.35311C156.178 9.61873 155.166 11.1375 153.9 11.3906L151.116 11.8969C145.041 12.9094 140.737 17.9719 140.737 24.0469C140.737 32.6531 134.662 39.9937 126.056 41.2594C124.791 41.5125 123.778 41.5125 122.766 41.7656Z" fill="#414951"/>
<path d="M81 51.8906C79.4813 51.8906 78.4688 50.625 78.4688 49.3593C78.4688 48.8531 78.7219 48.3468 78.975 47.8406L80.4938 45.5625C84.0375 40.7531 83.5313 33.9187 79.2282 29.6156C73.1532 23.5406 72.3938 13.9219 77.4563 7.08748L78.975 5.06248C79.9875 4.04998 81.5063 3.79685 82.5188 4.80935C83.5313 5.56873 83.7844 7.08748 83.025 8.09998L81.5063 10.125C77.9625 14.9344 78.4688 21.7687 82.7719 26.0719C88.8469 32.1469 89.6063 41.5125 84.5438 48.6C83.025 50.8781 82.5188 51.8906 81 51.8906Z" fill="#414951"/>
<path d="M144.534 87.8344C139.978 87.8344 135.422 86.0625 132.131 82.7719C127.828 78.4687 121.247 77.9625 116.184 81.2531L113.906 82.7719C112.894 83.5312 111.122 83.2781 110.362 82.2656C109.603 81.2531 109.856 79.4812 110.869 78.7219L113.147 77.2031C119.981 72.1406 129.6 72.9 135.675 78.975C139.978 83.2781 146.812 83.7844 151.622 80.2406L153.9 78.7219C154.912 77.7094 156.431 77.7094 157.444 78.4687C158.456 79.2281 158.456 81 157.697 82.0125C157.444 82.2656 157.191 82.5187 156.684 82.7719C153.647 86.0625 149.091 87.8344 144.534 87.8344Z" fill="#414951"/>
<path d="M124.031 68.3438C125.429 68.3438 126.562 67.2105 126.562 65.8125C126.562 64.4145 125.429 63.2812 124.031 63.2812C122.633 63.2812 121.5 64.4145 121.5 65.8125C121.5 67.2105 122.633 68.3438 124.031 68.3438Z" fill="#414951"/>
<path d="M101.25 65.8125C102.648 65.8125 103.781 64.6792 103.781 63.2812C103.781 61.8833 102.648 60.75 101.25 60.75C99.852 60.75 98.7188 61.8833 98.7188 63.2812C98.7188 64.6792 99.852 65.8125 101.25 65.8125Z" fill="#414951"/>
<path d="M103.781 48.0938C105.179 48.0938 106.312 46.9605 106.312 45.5625C106.312 44.1645 105.179 43.0312 103.781 43.0312C102.383 43.0312 101.25 44.1645 101.25 45.5625C101.25 46.9605 102.383 48.0938 103.781 48.0938Z" fill="#414951"/>
<path d="M134.156 5.0625C135.554 5.0625 136.688 3.92922 136.688 2.53125C136.688 1.13328 135.554 0 134.156 0C132.758 0 131.625 1.13328 131.625 2.53125C131.625 3.92922 132.758 5.0625 134.156 5.0625Z" fill="#414951"/>
<path d="M101.25 15.6938L108.338 22.7813L101.25 29.8688L94.1626 22.7813L101.25 15.6938Z" fill="#414951"/>
<path d="M58.2188 10.6313L65.3063 17.7188L58.2188 24.8063L51.1313 17.7188L58.2188 10.6313Z" fill="#414951"/>
<path d="M154.406 30.8813L161.494 37.9688L154.406 45.0563L147.319 37.9688L154.406 30.8813Z" fill="#414951"/>
<path d="M144.281 96.6938L151.369 103.781L144.281 110.869L137.194 103.781L144.281 96.6938Z" fill="#414951"/>
<path d="M139.219 60.7499C138.206 60.7499 137.194 59.9905 136.941 58.978C136.434 57.7124 137.194 56.1936 138.459 55.6874L146.053 53.1561C147.319 52.6499 148.837 53.4093 149.344 54.6749C149.85 55.9405 149.091 57.4593 147.825 57.9655L140.231 60.4968C139.725 60.7499 139.472 60.7499 139.219 60.7499Z" fill="#414951"/>
<path d="M118.969 22.7812C117.45 22.7812 116.437 21.7687 116.184 20.5031C116.184 20.2499 116.184 19.7437 116.437 19.4906L118.969 11.8968C119.475 10.6312 120.741 9.87181 122.259 10.3781C123.525 10.8843 124.284 12.1499 123.778 13.6687L121.247 21.2624C120.994 22.0218 119.981 22.7812 118.969 22.7812Z" fill="#414951"/>
</g>
<defs>
<clipPath id="clip0_46_40">
<rect width="162" height="162" fill="white"/>
</clipPath>
</defs>
</svg>
