<svg width="45" height="46" viewBox="0 0 45 46" fill="none" xmlns="http://www.w3.org/2000/svg">
<path d="M44.25 37.5666H41.2502V31.4805C41.4729 31.4488 41.7187 31.4333 42 31.4333C43.2392 31.4333 44.25 30.4 44.25 29.1333V27.5969C44.25 26.3287 43.2436 25.3 42.0029 25.3H36V20.2343C36.2342 20.0091 36.4473 19.9333 36.7499 19.9333C37.9928 19.9333 38.9999 18.9039 38.9999 17.6334V16.1C38.9999 14.8295 37.9928 13.8001 36.7499 13.8001H32.9999V9.8544C34.5715 9.36636 35.3678 7.35412 34.5483 5.77419L32.9084 2.69965C32.6242 2.16677 31.8757 2.16677 31.5915 2.69965L29.9558 5.76634C29.1327 7.35293 29.928 9.36517 31.5 9.85412V13.8H23.25V9.85431C24.8216 9.36627 25.6178 7.35403 24.7984 5.7741L23.1585 2.69956C22.8743 2.16668 22.1258 2.16668 21.8416 2.69956L20.2058 5.76624C19.3828 7.35284 20.1781 9.36508 21.7501 9.85403V13.7999H13.5001V9.85421C15.0717 9.36618 15.8679 7.35393 15.0484 5.77401L13.4086 2.69947C13.1243 2.16658 12.3759 2.16658 12.0917 2.69947L10.4559 5.76615C9.63287 7.35275 10.4281 9.36499 12.0002 9.85394V13.7998H8.25C7.00707 13.7998 6.00004 14.8292 6.00004 16.0998V17.6331C6.00004 18.9036 7.00707 19.9331 8.25 19.9331C8.54667 19.9331 8.78596 19.9714 8.99996 20.0617V25.2997H2.99698C1.75628 25.2997 0.74996 26.3284 0.74996 27.5967V29.133C0.74996 30.3997 1.76075 31.433 2.99993 31.433H3.75016V37.5664H0.74996C0.335708 37.5664 0 37.9096 0 38.333V41.3997C0 42.6702 1.00704 43.6996 2.24997 43.6996H42.7499C43.9929 43.6996 44.9999 42.6702 44.9999 41.3997V38.333C45 37.9099 44.6642 37.5666 44.25 37.5666ZM31.2768 6.4925L32.2499 4.66814L33.2272 6.50035C33.6386 7.29365 33.1554 8.34179 32.3798 8.4261C32.3361 8.43094 32.2934 8.43331 32.2499 8.43331C32.2064 8.43331 32.1637 8.43094 32.1217 8.42628C31.3444 8.34179 30.8613 7.29365 31.2768 6.4925ZM21.5269 6.4925L22.5 4.66814L23.4772 6.50035C23.8886 7.29365 23.4055 8.34179 22.6299 8.4261C22.5862 8.43094 22.5435 8.43331 22.5 8.43331C22.4564 8.43331 22.4137 8.43094 22.3717 8.42628C21.5944 8.34179 21.1113 7.29365 21.5269 6.4925ZM11.7769 6.4925L12.7499 4.66814L13.7272 6.50035C14.1386 7.29365 13.6555 8.34179 12.8799 8.4261C12.8362 8.43094 12.7935 8.43331 12.7499 8.43331C12.7064 8.43331 12.6637 8.43094 12.6217 8.42628C11.8444 8.34179 11.3613 7.29365 11.7769 6.4925ZM7.49996 17.6333V16.0999C7.49996 15.6762 7.8354 15.3333 8.24992 15.3333H36.7499C37.1644 15.3333 37.4999 15.6762 37.4999 16.0999V17.6333C37.4999 18.057 37.1644 18.3999 36.7499 18.3999C35.8483 18.3999 35.2832 18.711 34.6994 19.4119C34.6922 19.4198 34.6849 19.4274 34.6779 19.4358C34.5876 19.5447 34.505 19.6533 34.4099 19.7871C34.351 19.8688 34.2916 19.9529 34.2309 20.0425C34.1554 20.1542 34.1119 20.2186 34.0821 20.2623C33.4609 21.1757 33.0769 21.4667 32.2499 21.4667C31.4229 21.4667 31.0388 21.1757 30.4176 20.2623C30.3879 20.2186 30.3444 20.1542 30.2689 20.0425C29.4892 18.8927 28.8873 18.4 27.7499 18.4C26.3642 18.4 25.5263 18.9356 24.3818 20.1734C24.3583 20.1988 24.1604 20.4139 24.1037 20.4748C23.4137 21.217 23.0332 21.4667 22.4999 21.4667C21.9665 21.4667 21.586 21.217 20.896 20.4748C20.8394 20.4139 20.6415 20.1988 20.618 20.1734C19.4735 18.9357 18.6355 18.4 17.2499 18.4C15.823 18.4 15.0591 18.9788 14.1861 20.2623C14.1546 20.3086 14.1093 20.3756 14.0361 20.4839C13.5113 21.258 13.2563 21.4667 12.7499 21.4667C12.7182 21.4667 12.6875 21.4659 12.6576 21.4641C12.2104 21.4384 11.9557 21.2096 11.4636 20.4839C11.3903 20.3756 11.345 20.3086 11.3136 20.2623C11.2461 20.163 11.1792 20.0693 11.1126 19.9783C10.9151 19.705 10.7382 19.4909 10.5463 19.3055C9.92971 18.6882 9.25409 18.4 8.24983 18.4C7.83548 18.4 7.49996 18.057 7.49996 17.6333ZM10.5 21.7382C10.5982 21.8689 10.6947 21.9872 10.7912 22.0964C10.7931 22.0986 10.7951 22.1008 10.797 22.103C10.8384 22.1495 10.8797 22.1941 10.9212 22.2368C10.9279 22.2436 10.9345 22.2505 10.9412 22.2572C10.9787 22.2952 11.0164 22.3317 11.0543 22.3667C11.0629 22.3746 11.0715 22.3827 11.0801 22.3905C11.1177 22.4245 11.1557 22.4567 11.1938 22.4877C11.2019 22.4942 11.2098 22.5011 11.2178 22.5075C11.2622 22.5426 11.3069 22.576 11.3523 22.6072C11.3538 22.6082 11.3552 22.6094 11.3567 22.6104C11.4049 22.6432 11.4538 22.674 11.5033 22.7025C11.5074 22.7048 11.5116 22.7068 11.5157 22.7091C11.5592 22.7338 11.6033 22.7568 11.6483 22.7782C11.6634 22.7855 11.6789 22.7918 11.6942 22.7985C11.7288 22.814 11.7635 22.8289 11.7991 22.8425C11.8181 22.8499 11.8375 22.8564 11.8568 22.8631C11.8898 22.8746 11.9231 22.8857 11.957 22.8956C11.9781 22.9018 11.9995 22.9078 12.0211 22.9134C12.0546 22.9223 12.0887 22.9303 12.1233 22.9378C12.1456 22.9427 12.1681 22.9474 12.1908 22.9516C12.2266 22.9583 12.2632 22.9639 12.3001 22.9691C12.3227 22.9723 12.3451 22.9758 12.3681 22.9785C12.4091 22.9832 12.4512 22.9866 12.4936 22.9898C12.5139 22.9913 12.5335 22.9934 12.5541 22.9945C12.6177 22.998 12.6827 23 12.7499 23C13.8873 23 14.4892 22.5073 15.2689 21.3575C15.3444 21.2458 15.3879 21.1814 15.4176 21.1377C16.0388 20.2243 16.4229 19.9333 17.2499 19.9333C18.1181 19.9333 18.641 20.2676 19.5278 21.2266C19.5489 21.2495 19.7488 21.4667 19.8087 21.5311C20.7588 22.5532 21.4399 23 22.4999 23C23.5598 23 24.241 22.5532 25.1911 21.5311C25.2509 21.4667 25.4507 21.2495 25.4719 21.2266C26.3588 20.2676 26.8816 19.9333 27.7499 19.9333C28.2563 19.9333 28.5112 20.142 29.0361 20.9161C29.1094 21.0244 29.1547 21.0914 29.1861 21.1377C30.059 22.4212 30.823 23 32.2499 23C32.3293 23 32.406 22.9976 32.4814 22.994C32.501 22.9931 32.5204 22.9919 32.5397 22.9907C32.6071 22.9866 32.6732 22.9812 32.7377 22.9742C32.745 22.9733 32.7527 22.9729 32.7599 22.972C32.8312 22.9637 32.9004 22.9531 32.9683 22.941C32.9834 22.9384 32.9984 22.9354 33.0133 22.9324C33.0733 22.9209 33.1321 22.908 33.1895 22.8935C33.1977 22.8914 33.2061 22.8897 33.2142 22.8876C33.2798 22.8704 33.3438 22.851 33.4064 22.8298C33.416 22.8266 33.4253 22.823 33.4347 22.8197C33.4919 22.7996 33.5479 22.7779 33.6029 22.7543C33.6093 22.7516 33.6159 22.749 33.6222 22.7462C33.6842 22.7191 33.745 22.6897 33.8045 22.658C33.8067 22.6569 33.809 22.6555 33.8112 22.6543C33.8696 22.6231 33.9269 22.5894 33.9833 22.5536C33.9865 22.5515 33.9898 22.5496 33.9931 22.5475C34.1697 22.4347 34.3372 22.3007 34.4998 22.1434V25.3H10.4999L10.5 21.7382ZM2.24997 29.1333V27.5969C2.24997 27.1755 2.58469 26.8333 2.99698 26.8333H9.75001H35.25H42.003C42.4153 26.8333 42.75 27.1755 42.75 27.5969V29.1333C42.75 29.5532 42.4108 29.8999 42.0001 29.8999C40.1793 29.8999 39.2269 30.4441 38.1579 31.6956C38.1184 31.7418 38.0683 31.8009 37.9827 31.9018C37.2975 32.7078 36.918 32.9534 36.0665 32.9653C36.0444 32.9656 36.0234 32.9665 36.0006 32.9665C35.256 32.9663 34.7806 32.7882 34.1457 32.2822C33.9992 32.1654 33.8442 32.0311 33.6754 31.8775C33.6316 31.8376 33.4492 31.6707 33.4016 31.6273C32.0697 30.4154 31.0416 29.8999 29.2503 29.8999H29.2502C27.4589 29.8999 26.4309 30.4154 25.0991 31.6273C25.0515 31.6706 24.8694 31.8374 24.8257 31.8771C23.9251 32.6968 23.4167 32.9665 22.5002 32.9665C22.2139 32.9665 21.9674 32.9401 21.7363 32.8789C21.228 32.7442 20.7943 32.4407 20.1752 31.8774C20.1314 31.8375 19.949 31.6706 19.9014 31.6272C19.7303 31.4715 19.5644 31.3278 19.401 31.1947C18.293 30.2918 17.3116 29.8998 15.7504 29.8998H15.7502C12.9427 29.8998 11.2502 31.1592 11.2502 33.7331V34.4998C11.2502 34.8429 10.836 35.2663 10.5003 35.2664C10.4443 35.2664 10.386 35.2535 10.3277 35.232C10.3208 35.2294 10.314 35.2277 10.3071 35.2248C10.3071 35.2248 10.307 35.2247 10.3068 35.2247C10.1551 35.1626 10.0055 35.0376 9.8996 34.8922C9.80881 34.7674 9.75037 34.6276 9.75037 34.4996V33.733C9.75037 31.6771 6.90735 29.8997 4.50038 29.8997H4.5003C4.50021 29.8997 4.50021 29.8997 4.50012 29.8997H3.00002C2.58925 29.8999 2.24997 29.5532 2.24997 29.1333ZM5.25026 31.5107C5.26205 31.513 5.27376 31.515 5.28555 31.5175C5.30351 31.5211 5.32138 31.525 5.33925 31.5289C5.37348 31.5363 5.40761 31.5441 5.44174 31.5523C5.45926 31.5565 5.47686 31.5607 5.49437 31.5651C5.53047 31.5741 5.56639 31.5837 5.6024 31.5937C5.61742 31.5978 5.63243 31.6018 5.64744 31.606C5.69247 31.6189 5.73742 31.6324 5.78228 31.6465C5.78791 31.6482 5.79354 31.6498 5.79908 31.6516C5.85108 31.6681 5.90291 31.6856 5.95446 31.7036C5.96108 31.706 5.96769 31.7085 5.9743 31.7109C6.01773 31.7264 6.06107 31.7424 6.10405 31.7589C6.1179 31.7642 6.13157 31.7698 6.14533 31.7752C6.18134 31.7894 6.21717 31.8039 6.25273 31.8188C6.26792 31.8252 6.28302 31.8316 6.29813 31.8381C6.3328 31.853 6.3672 31.8681 6.40142 31.8837C6.41581 31.8902 6.43028 31.8967 6.44458 31.9034C6.48095 31.9202 6.51687 31.9375 6.5527 31.955C6.56405 31.9606 6.57548 31.966 6.58683 31.9716C6.68217 32.0192 6.77537 32.069 6.8658 32.1209C6.87063 32.1236 6.87527 32.1265 6.88001 32.1293C6.91932 32.152 6.95819 32.1751 6.99644 32.1987C7.00734 32.2054 7.01797 32.2122 7.02878 32.219C7.06095 32.2391 7.09267 32.2594 7.12395 32.2799C7.13574 32.2877 7.14745 32.2955 7.15915 32.3034C7.18945 32.3238 7.21938 32.3443 7.24878 32.365C7.25968 32.3727 7.27058 32.3804 7.28139 32.3881C7.31293 32.4107 7.34385 32.4336 7.37423 32.4567C7.38174 32.4624 7.38933 32.4681 7.39675 32.4737C7.4736 32.5329 7.54651 32.5934 7.61496 32.6548C7.6188 32.6582 7.62237 32.6617 7.62621 32.6652C7.65543 32.6917 7.68394 32.7183 7.71146 32.7452C7.71923 32.7528 7.72674 32.7605 7.73442 32.768C7.75766 32.7911 7.78035 32.8143 7.80225 32.8377C7.81038 32.8463 7.81833 32.855 7.82619 32.8636C7.84728 32.8866 7.86756 32.9096 7.88722 32.9327C7.89428 32.941 7.90143 32.9493 7.90831 32.9577C7.92931 32.983 7.94923 33.0084 7.96845 33.0338C7.97282 33.0396 7.97747 33.0454 7.98176 33.0512C8.02894 33.1149 8.07058 33.1789 8.10605 33.2427C8.10882 33.2477 8.11106 33.2525 8.11374 33.2574C8.12795 33.2837 8.14126 33.3099 8.15332 33.3361C8.15716 33.3444 8.16065 33.3528 8.16422 33.3611C8.17423 33.384 8.18352 33.407 8.19183 33.4298C8.19514 33.4389 8.19836 33.4481 8.2014 33.4572C8.2089 33.4798 8.21551 33.5022 8.22123 33.5246C8.22347 33.5333 8.22588 33.5419 8.22785 33.5506C8.23347 33.5751 8.23776 33.5996 8.24125 33.6239C8.24205 33.6298 8.24339 33.6359 8.24402 33.6418C8.24768 33.6726 8.24974 33.7031 8.24974 33.7334V34.5C8.24974 34.9826 8.42934 35.4527 8.72055 35.8408C9.03222 36.2564 9.47194 36.5778 9.95625 36.72C9.95893 36.7208 9.96161 36.7218 9.96438 36.7226C9.96768 36.7235 9.97099 36.7242 9.9743 36.7251C10.1453 36.7736 10.3216 36.8 10.4997 36.8H10.4999C11.6641 36.8 12.7499 35.6901 12.7499 34.5V33.7334C12.7499 32.1306 13.6866 31.4335 15.7497 31.4335C16.9055 31.4335 17.5903 31.6896 18.4303 32.366C18.5819 32.4881 18.7379 32.6222 18.9034 32.7728C18.9488 32.8141 19.1308 32.9808 19.1767 33.0226C19.9694 33.744 20.6023 34.173 21.3651 34.3699C21.7082 34.4585 22.0775 34.5002 22.4995 34.5002H22.4997C23.86 34.5002 24.6734 34.0686 25.8227 33.0226C25.8687 32.9808 26.0508 32.8141 26.0961 32.7728C27.1782 31.788 27.8851 31.4335 29.2496 31.4335C30.6141 31.4335 31.3211 31.788 32.4035 32.7729C32.4489 32.8142 32.631 32.9809 32.677 33.0227C32.8925 33.2188 33.0962 33.3933 33.2939 33.5474C34.1322 34.2009 34.864 34.4867 35.9303 34.4987C35.9535 34.499 35.9756 34.5001 35.9991 34.5001C35.9991 34.5001 35.9992 34.5001 35.9993 34.5001C35.9994 34.5001 35.9995 34.5001 35.9997 34.5001C37.4142 34.5001 38.1546 34.0387 39.1185 32.9123C39.2068 32.8088 39.255 32.7522 39.2925 32.7087C39.4593 32.5146 39.6077 32.3539 39.7497 32.2189V37.5668H5.25026V31.5107ZM43.5 41.3999C43.5 41.8237 43.1646 42.1666 42.75 42.1666H2.24997C1.83545 42.1666 1.50001 41.8237 1.50001 41.3999V39.1H4.50021H40.5002H43.4999V41.3999H43.5Z" fill="white"/>
</svg>
