<svg width="48" height="46" viewBox="0 0 48 46" fill="none" xmlns="http://www.w3.org/2000/svg">
<path d="M1.81798 45.4305C2.0943 45.4305 2.37458 45.3662 2.6397 45.2344L10.8572 41.1381C12.168 40.4854 13.1996 39.9718 14.0256 39.5661C16.9621 38.104 17.1767 37.9993 17.7087 37.7392C18.0732 37.5615 18.5864 37.3109 20.2158 36.5061C20.6785 36.2822 21.2304 36.0084 21.8932 35.6797L26.6777 33.3128L27.3011 33.9362C27.9557 34.5907 29.0169 34.5907 29.6714 33.9362C30.326 33.2817 30.326 32.2205 29.6714 31.5661L13.987 15.8815C13.3325 15.2271 12.2713 15.2271 11.6168 15.8815C10.9623 16.536 10.9623 17.5972 11.6168 18.2517L12.2744 18.9094L9.04837 25.3239C7.86076 27.6886 6.83317 29.7236 5.94535 31.4794L4.35357 34.6286C0.871654 41.5245 0.443639 42.317 0.282546 42.6157L0.192609 42.7855C-0.159556 43.5057 -0.0212183 44.335 0.545496 44.8981C0.89766 45.2481 1.3524 45.4305 1.81798 45.4305ZM21.2358 34.3541C21.2156 34.3642 21.1999 34.3722 21.1799 34.3819L11.1787 24.3808L13.3531 20.0573L25.5271 32.231L21.2358 34.3541ZM9.59251 27.5351L18.0045 35.947C17.5272 36.1818 17.2657 36.3093 17.0597 36.41C16.5258 36.6705 16.3109 36.7756 13.3697 38.2398C13.299 38.2749 13.2175 38.315 13.1436 38.3514L7.15598 32.3639L7.26552 32.1472C7.95341 30.787 8.72781 29.2533 9.59251 27.5351ZM1.5153 43.449L1.58429 43.3186C1.74611 43.0184 2.17873 42.217 5.56447 35.5128L9.9761 39.9245L1.9798 43.9102C1.78873 44.0049 1.65256 43.9124 1.58826 43.8485C1.53408 43.7946 1.4185 43.6462 1.5153 43.449Z" fill="white"/>
<path d="M39.9139 26.315C39.9103 25.9065 39.5755 25.5569 39.1677 25.5818L38.9398 25.5836C37.5037 25.5974 36.0585 25.0715 34.9544 24.1056C33.6006 22.9209 31.6274 22.8154 30.1555 23.8481L29.2699 24.4697C28.9354 24.7041 28.8545 25.1654 29.0893 25.4998C29.3237 25.8343 29.7857 25.9152 30.1194 25.6804L31.0051 25.0592C31.9174 24.4191 33.1412 24.4845 33.9799 25.2188C35.3408 26.41 37.0814 27.0638 38.8885 27.0634C38.9098 27.0634 38.9315 27.0634 38.9528 27.0631L39.1807 27.0613C39.5892 27.0577 39.9175 26.7236 39.9139 26.315Z" fill="white"/>
<path d="M24.9781 19.7662C25.0258 19.7662 25.0745 19.7615 25.1233 19.7517L26.9322 19.392C29.2153 18.9376 31.0155 17.175 31.519 14.9016C31.8271 13.5089 32.7969 12.3487 34.1134 11.7982L35.6221 11.1676C35.9992 11.0101 36.1769 10.5767 36.0191 10.1996C35.8616 9.82286 35.4289 9.64516 35.0514 9.80264L33.5427 10.4336C31.783 11.169 30.4863 12.72 30.0742 14.5823C29.6978 16.2828 28.3513 17.6012 26.6432 17.9407L24.8343 18.3008C24.4338 18.3806 24.1737 18.77 24.2532 19.1706C24.3232 19.5227 24.6324 19.7662 24.9781 19.7662Z" fill="white"/>
<path d="M18.7346 14.9457C18.5041 15.2831 18.5908 15.7432 18.9282 15.9737C19.0557 16.0611 19.2009 16.1026 19.3446 16.1026C19.5808 16.1026 19.8127 15.9899 19.9561 15.7801L20.5134 14.9645C21.5226 13.4879 21.5952 11.5339 20.6984 9.98578C20.4733 9.59858 20.335 9.17599 20.2866 8.72991L20.0172 6.25284C19.9731 5.84686 19.6065 5.55321 19.2019 5.59727C18.7956 5.6417 18.5023 6.00687 18.5464 6.41285L18.8158 8.88992C18.8866 9.54224 19.0892 10.1606 19.4183 10.728C20.0312 11.7856 19.9818 13.121 19.2919 14.1301L18.7346 14.9457Z" fill="white"/>
<path d="M25.9598 11.9301H25.9652C26.554 11.9301 27.1077 11.7014 27.5249 11.2861C27.9438 10.8693 28.1754 10.3145 28.1768 9.72354C28.1783 9.13299 27.9493 8.57711 27.5328 8.15813C27.116 7.73914 26.5612 7.50798 25.9703 7.50653C25.9685 7.50653 25.9667 7.50653 25.9649 7.50653C25.3761 7.50653 24.822 7.73517 24.4045 8.1509C23.5405 9.01091 23.5373 10.4141 24.3973 11.2785C24.8141 11.6971 25.3689 11.9286 25.9598 11.9301Z" fill="white"/>
<path d="M35.5897 20.1758C36.0065 20.5948 36.5613 20.826 37.1522 20.8274H37.1576C37.7464 20.8274 38.3001 20.5991 38.7172 20.1838C39.1362 19.767 39.3678 19.2122 39.3692 18.6212C39.3706 18.0303 39.1416 17.4745 38.7252 17.0558C38.3084 16.6368 37.7536 16.4057 37.1627 16.4042C36.5403 16.4053 36.0155 16.6314 35.5969 17.0482C34.7329 17.909 34.7297 19.3119 35.5897 20.1758Z" fill="white"/>
<path d="M33.6865 32.4535C33.7193 32.6623 33.8681 32.8335 34.0697 32.8963L35.1554 33.2337L35.4928 34.3194C35.5556 34.521 35.7272 34.6698 35.936 34.703C35.9649 34.7074 35.9938 34.7095 36.0227 34.7095C36.2011 34.7095 36.3705 34.6236 36.4756 34.4755L37.1323 33.5468L38.2689 33.5617C38.4716 33.5649 38.6746 33.4468 38.7706 33.2586C38.8664 33.0704 38.8472 32.8443 38.7208 32.6749L38.0407 31.7636L38.4058 30.6869C38.4734 30.4872 38.4221 30.2661 38.2726 30.1166C38.1227 29.967 37.9012 29.915 37.7022 29.9837L36.6255 30.3485L35.7142 29.6687C35.5448 29.5423 35.3183 29.5231 35.1305 29.6189C34.9423 29.7149 34.825 29.9093 34.8275 30.1202L34.8423 31.2572L33.914 31.9139C33.7417 32.0356 33.6532 32.2447 33.6865 32.4535Z" fill="white"/>
<path d="M42.3967 23.2283L43.4825 23.5656L43.8198 24.6514C43.8827 24.8529 44.0542 25.0014 44.263 25.0346C44.2919 25.0393 44.3208 25.0415 44.3497 25.0415C44.5281 25.0415 44.6975 24.9555 44.8026 24.807L45.4593 23.8788L46.596 23.8932C46.8387 23.8907 47.0016 23.7784 47.0977 23.5905C47.1934 23.4024 47.1742 23.1759 47.0478 23.0069L46.3677 22.0956L46.7332 21.0188C46.8008 20.8187 46.7495 20.5977 46.5999 20.4482C46.45 20.299 46.2286 20.2466 46.0296 20.3152L44.9529 20.68L44.0416 20.0003C43.8718 19.8739 43.6457 19.8544 43.4579 19.9504C43.2697 20.0465 43.1523 20.2408 43.1549 20.4518L43.1693 21.5888L42.241 22.2455C42.0688 22.3675 41.9803 22.5767 42.0135 22.7851C42.0464 22.9939 42.1952 23.1654 42.3967 23.2283Z" fill="white"/>
<path d="M41.5465 8.77002C41.6422 8.58219 41.6231 8.35573 41.4967 8.18633L40.8165 7.27539L41.1821 6.19831C41.2496 5.99857 41.1983 5.77716 41.0488 5.62799C40.8993 5.47881 40.6778 5.42644 40.4785 5.49471L39.4014 5.86023L38.4905 5.1801C38.3207 5.05369 38.0946 5.03454 37.9068 5.13062C37.7186 5.22598 37.6012 5.42066 37.6037 5.63196L37.6182 6.76864L36.6899 7.42493C36.5176 7.54701 36.4291 7.7565 36.4623 7.96455C36.4952 8.17332 36.644 8.34525 36.8456 8.40774L37.9313 8.74545L38.2687 9.8312C38.3315 10.0328 38.5031 10.1816 38.7119 10.2144C38.7408 10.2191 38.7697 10.2213 38.7986 10.2213C38.977 10.2213 39.1464 10.1353 39.2515 9.98688L39.9081 9.05825L41.0448 9.07306C41.2742 9.08137 41.4504 8.95856 41.5465 8.77002Z" fill="white"/>
<path d="M22.1232 2.89518C22.1561 3.10358 22.3049 3.27551 22.5065 3.33836L23.5922 3.67572L23.9296 4.76147C23.9924 4.96301 24.164 5.11146 24.3728 5.14433C24.4017 5.14939 24.4305 5.15156 24.4594 5.15156C24.6379 5.15156 24.8073 5.06559 24.9124 4.91678L25.569 3.98851L26.7057 4.00296C26.9304 4.00368 27.1113 3.88882 27.2074 3.70028C27.3031 3.5121 27.284 3.28563 27.1576 3.11659L26.4778 2.20529L26.843 1.12857C26.9105 0.928472 26.8592 0.707421 26.7097 0.558248C26.5601 0.408714 26.3387 0.356702 26.1394 0.424967L25.0626 0.790135L24.1513 0.110006C23.9819 -0.016412 23.7555 -0.0351942 23.5677 0.0605223C23.3795 0.156239 23.2621 0.350561 23.2646 0.562221L23.2794 1.69854L22.3508 2.35519C22.1785 2.47727 22.09 2.68677 22.1232 2.89518Z" fill="white"/>
<path d="M10.0286 9.43317C10.0615 9.64122 10.2103 9.81315 10.4119 9.87599L11.4976 10.2133L11.835 11.2991C11.8978 11.5006 12.0694 11.6495 12.2782 11.6827C12.307 11.687 12.3359 11.6892 12.3648 11.6892C12.5433 11.6892 12.7127 11.6032 12.8178 11.4551L13.4744 10.5265L14.6111 10.5413C14.8166 10.5428 15.0167 10.4265 15.1128 10.2383C15.2085 10.0501 15.1894 9.82398 15.063 9.65458L14.3832 8.74329L14.7484 7.66621C14.8159 7.46647 14.7643 7.24505 14.6151 7.09624C14.4655 6.94671 14.2438 6.8947 14.0448 6.96296L12.9677 7.32813L12.0567 6.648C11.887 6.52158 11.6609 6.50244 11.473 6.59852C11.2849 6.69423 11.1675 6.88856 11.17 7.09985L11.1848 8.23653L10.2562 8.89318C10.0839 9.01491 9.9954 9.2244 10.0286 9.43317Z" fill="white"/>
</svg>
